<svg xmlns="http://www.w3.org/2000/svg" width="850" height="539" viewBox="0 0 850 539" role="img" font-family="Inter, Inter Variable, Segoe UI, Roboto, Helvetica, Arial, sans-serif">
<title>Logical topology</title>
<desc>Acme · 2026-09-28 12:00 UTC · 8 devices · 6 links</desc>
<rect x="0" y="0" width="850" height="539" fill="#ffffff"/>
<g id="bands">
</g><g id="links">
<a href="https://danbyte.example/interfaces/i1"><path d="M 290,170 L 290,152" fill="none" stroke="#2563eb" stroke-width="3" stroke-linecap="round" stroke-linejoin="round"/></a>
<a href="https://danbyte.example/interfaces/i2"><path d="M 296,170 L 296,152" fill="none" stroke="#2563eb" stroke-width="3" stroke-dasharray="5 5" stroke-linejoin="round"/></a>
<a href="https://danbyte.example/interfaces/i2"><path d="M 302,216 L 302,234" fill="none" stroke="#fde68a" stroke-width="3" stroke-dasharray="5 5" stroke-linejoin="round"/></a>
<path d="M 308,216 L 308,414" fill="none" stroke="#1e40af" stroke-width="3" stroke-dasharray="5 5" stroke-linejoin="round"/>
<path d="M 557,282 L 557,264" fill="none" stroke="#fde68a" stroke-width="3" stroke-linecap="round" stroke-linejoin="round"/>
<path d="M 729,282 L 729,264" fill="none" stroke="#fde68a" stroke-width="3" stroke-linecap="round" stroke-linejoin="round"/>
</g><g id="nodes">
<g><rect x="24.5" y="24.5" width="801" height="29" rx="9.5" fill="#f4f4f5" stroke="#d2d2d3" stroke-width="1"/><text x="93.6" y="43.37" text-anchor="middle" font-size="12" font-weight="700" fill="#52525c">External network</text></g>
<a href="https://danbyte.example/interfaces/if-a1"><g><rect x="698.5" y="71" width="127" height="42" rx="9.5" fill="#f4f4f5" stroke="#d2d2d3" stroke-width="1"/><text x="762" y="88.87" text-anchor="middle" font-size="12" font-weight="700" fill="#18181b">eno1</text><text x="762" y="104.14" text-anchor="middle" font-size="10" fill="#404042">hv-01</text></g></a>
<a href="https://danbyte.example/vlans/v10"><g><rect x="24.5" y="122.5" width="801" height="29" rx="9.5" fill="#2563eb" stroke="#2055ca" stroke-width="1"/><rect x="144.8" y="129" width="52" height="16" rx="5" fill="#f59e0b" stroke="#ffffff" stroke-width="1"/><text x="170.8" y="140.27" text-anchor="middle" font-size="9" font-weight="500" fill="#0a0a0a">Planned</text><text x="86.4" y="141.37" text-anchor="middle" font-size="12" font-weight="700" fill="#ffffff">MGMT · VLAN 10</text></g></a>
<a href="https://danbyte.example/vlans/v20"><g><rect x="24.5" y="234.5" width="801" height="29" rx="9.5" fill="#fde68a" stroke="#dac677" stroke-width="1"/><text x="97.2" y="253.37" text-anchor="middle" font-size="12" font-weight="700" fill="#0a0a0a">SERVERS · VLAN 20</text></g></a>
<a href="https://danbyte.example/vlans/v99"><g><rect x="24.5" y="414.5" width="801" height="29" rx="9.5" fill="#1e40af" stroke="#1a3797" stroke-width="1"/><text x="93.6" y="433.37" text-anchor="middle" font-size="12" font-weight="700" fill="#ffffff">LEGACY · VLAN 99</text></g></a>
<a href="https://danbyte.example/devices/d1"><g><rect x="224.5" y="170.5" width="149" height="45" rx="9.5" fill="#7c3aed" stroke="#6b32cc" stroke-width="1"/><rect x="230" y="176" width="47" height="16" rx="5" fill="#22c55e" stroke="#ffffff" stroke-width="1"/><text x="253.5" y="187.27" text-anchor="middle" font-size="9" font-weight="500" fill="#0a0a0a">Active</text><text x="299" y="206.37" text-anchor="middle" font-size="12" font-weight="700" fill="#ffffff">core-01</text></g></a>
<a href="https://danbyte.example/devices/d2"><g><rect x="482.5" y="282.5" width="149" height="45" rx="9.5" fill="#f4f4f5" stroke="#d2d2d3" stroke-width="1"/><text x="557" y="318.37" text-anchor="middle" font-size="12" font-weight="700" fill="#18181b">a-very-long-acces…</text></g></a>
<a href="https://danbyte.example/virtual-machines/v1"><g><rect x="654.5" y="282.5" width="149" height="45" rx="9.5" fill="#f4f4f5" stroke="#d2d2d3" stroke-width="1"/><text x="729" y="318.37" text-anchor="middle" font-size="12" font-weight="700" fill="#18181b">web-01</text></g></a>
</g><g id="labels">
<g><rect x="298.5" y="156" width="76.2" height="10" fill="#ffffff"/><text x="336.6" y="164.27" text-anchor="middle" font-size="9" fill="#52525c" text-rendering="geometricPrecision">mgmt0, Eth1/1</text></g>
<g><rect x="310.5" y="220" width="38.4" height="10" fill="#ffffff"/><text x="329.7" y="228.27" text-anchor="middle" font-size="9" fill="#52525c" text-rendering="geometricPrecision">Eth1/1</text></g>
<g><rect x="310.5" y="400" width="38.4" height="10" fill="#ffffff"/><text x="329.7" y="408.27" text-anchor="middle" font-size="9" fill="#52525c" text-rendering="geometricPrecision">Eth1/2</text></g>
<g><rect x="559.5" y="268" width="114" height="10" fill="#ffffff"/><text x="616.5" y="276.27" text-anchor="middle" font-size="9" fill="#52525c" text-rendering="geometricPrecision">GigabitEthernet1/0/1</text></g>
<g><rect x="731.5" y="268" width="27.6" height="10" fill="#ffffff"/><text x="745.3" y="276.27" text-anchor="middle" font-size="9" fill="#52525c" text-rendering="geometricPrecision">net0</text></g>
</g>
<g id="notes">
<g><text x="92.4" y="96.37" text-anchor="middle" font-size="12" font-weight="500" fill="#3f3f46">Campus · VLAN group</text></g>
<g><text x="42" y="388.37" text-anchor="middle" font-size="12" font-weight="500" fill="#3f3f46">VLANs</text></g>
</g>
<g id="footer"><path d="M 12,468 H 838" stroke="#e4e4e7" stroke-width="0.75"/><rect x="12" y="481" width="36" height="16" rx="5" fill="#7c3aed" stroke="#6b32cc" stroke-width="1"/><text x="30" y="492.27" text-anchor="middle" font-size="9" font-weight="500" fill="#ffffff">Core</text><path d="M 63,489 H 83" stroke="#71717b" stroke-width="8" stroke-linecap="round"/><text x="89" y="492.64" font-size="10" fill="#3f3f46">VLAN</text><path d="M 128,489 H 148" stroke="#71717b" stroke-width="3" stroke-dasharray="5 5"/><text x="154" y="492.64" font-size="10" fill="#3f3f46">Tagged</text><text x="838" y="493" text-anchor="end" font-size="13" font-weight="700" fill="#18181b">Logical topology</text><text x="838" y="508" text-anchor="end" font-size="10" fill="#52525c">Acme · Site Aarhus</text><text x="838" y="522" text-anchor="end" font-size="9" fill="#71717b">2026-09-28 12:00 UTC</text></g>
</svg>